<?xml version="1.0" encoding="UTF-8"?>
<svg id="Layer_1" data-name="Layer 1" xmlns="http://www.w3.org/2000/svg" viewBox="0 0 1441 542">
  <defs>
    <style>
      .cls-1 {
        letter-spacing: 0em;
      }

      .cls-2 {
        letter-spacing: 0em;
      }

      .cls-3 {
        fill: #09a;
        font-family: MyriadPro-Regular, 'Myriad Pro';
        font-size: 36px;
      }

      .cls-4 {
        letter-spacing: -.01em;
      }

      .cls-5 {
        fill: #f15a24;
      }

      .cls-5, .cls-6, .cls-7, .cls-8 {
        stroke-width: 0px;
      }

      .cls-9 {
        letter-spacing: .02em;
      }

      .cls-10 {
        letter-spacing: 0em;
      }

      .cls-11 {
        fill: none;
        stroke-width: 8px;
      }

      .cls-11, .cls-12 {
        stroke: #0097f4;
        stroke-miterlimit: 10;
      }

      .cls-13 {
        letter-spacing: 0em;
      }

      .cls-6 {
        fill: #ff8c5f;
      }

      .cls-14 {
        letter-spacing: -.01em;
      }

      .cls-15 {
        letter-spacing: 0em;
      }

      .cls-7 {
        fill: #3fa9f5;
      }

      .cls-16 {
        letter-spacing: 0em;
      }

      .cls-12 {
        fill: #0097f4;
        stroke-width: 2px;
      }

      .cls-8 {
        fill: #fff;
      }

      .cls-17 {
        letter-spacing: 0em;
      }
    </style>
  </defs>
  <g>
    <rect class="cls-8" x="132" y="1" width="1136" height="188" rx="34.31" ry="34.31"/>
    <path class="cls-5" d="M1233.69,2c18.37,0,33.31,14.94,33.31,33.31v119.38c0,18.37-14.94,33.31-33.31,33.31H166.31c-18.37,0-33.31-14.94-33.31-33.31V35.31c0-18.37,14.94-33.31,33.31-33.31h1067.38M1233.69,0H166.31c-19.5,0-35.31,15.81-35.31,35.31v119.38c0,19.5,15.81,35.31,35.31,35.31h1067.38c19.5,0,35.31-15.81,35.31-35.31V35.31c0-19.5-15.81-35.31-35.31-35.31h0Z"/>
  </g>
  <g>
    <rect class="cls-8" x="1.5" y="449.5" width="334" height="91" rx="12.39" ry="12.39"/>
    <path class="cls-7" d="M323.11,451c6,0,10.89,4.88,10.89,10.89v66.23c0,6-4.88,10.89-10.89,10.89H13.89c-6,0-10.89-4.88-10.89-10.89v-66.23c0-6,4.88-10.89,10.89-10.89h309.23M323.11,448H13.89c-7.67,0-13.89,6.22-13.89,13.89v66.23c0,7.67,6.22,13.89,13.89,13.89h309.23c7.67,0,13.89-6.22,13.89-13.89v-66.23c0-7.67-6.22-13.89-13.89-13.89h0Z"/>
  </g>
  <text class="cls-3" transform="translate(56.54 504.54)"><tspan class="cls-1" x="0" y="0">G</tspan><tspan x="23.54" y="0">ame </tspan><tspan class="cls-13" x="96.59" y="0">P</tspan><tspan x="115.56" y="0">l</tspan><tspan class="cls-10" x="124.05" y="0">a</tspan><tspan x="141.26" y="0">t</tspan><tspan class="cls-4" x="153.18" y="0">f</tspan><tspan class="cls-15" x="163.22" y="0">o</tspan><tspan class="cls-16" x="182.99" y="0">r</tspan><tspan x="194.9" y="0">m</tspan></text>
  <g>
    <rect class="cls-8" x="369.5" y="449.5" width="334" height="91" rx="12.39" ry="12.39"/>
    <path class="cls-7" d="M691.11,451c6,0,10.89,4.88,10.89,10.89v66.23c0,6-4.88,10.89-10.89,10.89h-309.23c-6,0-10.89-4.88-10.89-10.89v-66.23c0-6,4.88-10.89,10.89-10.89h309.23M691.11,448h-309.23c-7.67,0-13.89,6.22-13.89,13.89v66.23c0,7.67,6.22,13.89,13.89,13.89h309.23c7.67,0,13.89-6.22,13.89-13.89v-66.23c0-7.67-6.22-13.89-13.89-13.89h0Z"/>
  </g>
  <text class="cls-3" transform="translate(484.4 504.54)"><tspan class="cls-13" x="0" y="0">P</tspan><tspan x="18.97" y="0">l</tspan><tspan class="cls-17" x="27.47" y="0">a</tspan><tspan class="cls-2" x="44.53" y="0">y</tspan><tspan x="61.13" y="0">ers</tspan></text>
  <g>
    <rect class="cls-8" x="737.5" y="449.5" width="334" height="91" rx="12.39" ry="12.39"/>
    <path class="cls-7" d="M1059.11,451c6,0,10.89,4.88,10.89,10.89v66.23c0,6-4.88,10.89-10.89,10.89h-309.23c-6,0-10.89-4.88-10.89-10.89v-66.23c0-6,4.88-10.89,10.89-10.89h309.23M1059.11,448h-309.23c-7.67,0-13.89,6.22-13.89,13.89v66.23c0,7.67,6.22,13.89,13.89,13.89h309.23c7.67,0,13.89-6.22,13.89-13.89v-66.23c0-7.67-6.22-13.89-13.89-13.89h0Z"/>
  </g>
  <text class="cls-3" transform="translate(828.03 504.54)"><tspan class="cls-14" x="0" y="0">A</tspan><tspan class="cls-15" x="21.6" y="0">d</tspan><tspan class="cls-2" x="41.9" y="0">v</tspan><tspan x="58.86" y="0">e</tspan><tspan class="cls-9" x="76.9" y="0">r</tspan><tspan x="89.53" y="0">tiser</tspan></text>
  <g>
    <rect class="cls-8" x="1105.5" y="449.5" width="334" height="91" rx="12.39" ry="12.39"/>
    <path class="cls-7" d="M1427.11,451c6,0,10.89,4.88,10.89,10.89v66.23c0,6-4.88,10.89-10.89,10.89h-309.23c-6,0-10.89-4.88-10.89-10.89v-66.23c0-6,4.88-10.89,10.89-10.89h309.23M1427.11,448h-309.23c-7.67,0-13.89,6.22-13.89,13.89v66.23c0,7.67,6.22,13.89,13.89,13.89h309.23c7.67,0,13.89-6.22,13.89-13.89v-66.23c0-7.67-6.22-13.89-13.89-13.89h0Z"/>
  </g>
  <text class="cls-3" transform="translate(1188.02 504.54)"><tspan class="cls-16" x="0" y="0">D</tspan><tspan class="cls-15" x="24.12" y="0">e</tspan><tspan class="cls-2" x="42.16" y="0">v</tspan><tspan x="59.11" y="0">elopers</tspan></text>
  <g>
    <path class="cls-6" d="M511.85,101.73l-5.04,15.27h-6.48l16.49-48.53h7.56l16.56,48.53h-6.7l-5.18-15.27h-17.21ZM527.76,96.84l-4.75-13.97c-1.08-3.17-1.8-6.05-2.52-8.86h-.14c-.72,2.88-1.51,5.83-2.45,8.78l-4.75,14.04h14.62Z"/>
    <path class="cls-6" d="M577.08,65.88v42.12c0,3.1.07,6.62.29,9h-5.69l-.29-6.05h-.14c-1.94,3.89-6.19,6.84-11.88,6.84-8.42,0-14.91-7.13-14.91-17.71-.07-11.59,7.13-18.72,15.63-18.72,5.33,0,8.93,2.52,10.51,5.33h.14v-20.81h6.34ZM570.75,96.33c0-.79-.07-1.87-.29-2.66-.94-4.03-4.39-7.34-9.14-7.34-6.55,0-10.44,5.76-10.44,13.47,0,7.06,3.46,12.89,10.3,12.89,4.25,0,8.14-2.81,9.29-7.56.22-.86.29-1.73.29-2.74v-6.05Z"/>
    <path class="cls-6" d="M590.04,82.15l6.84,19.59c1.15,3.17,2.09,6.05,2.81,8.93h.22c.79-2.88,1.8-5.76,2.95-8.93l6.77-19.59h6.62l-13.68,34.85h-6.05l-13.25-34.85h6.77Z"/>
    <path class="cls-6" d="M625.03,100.73c.14,8.57,5.62,12.1,11.95,12.1,4.54,0,7.27-.79,9.65-1.8l1.08,4.54c-2.23,1.01-6.05,2.16-11.59,2.16-10.73,0-17.14-7.06-17.14-17.57s6.19-18.79,16.35-18.79c11.38,0,14.4,10.01,14.4,16.42,0,1.3-.14,2.3-.22,2.95h-24.48ZM643.61,96.19c.07-4.03-1.66-10.3-8.78-10.3-6.41,0-9.22,5.9-9.72,10.3h18.51Z"/>
    <path class="cls-6" d="M657.57,93.02c0-4.1-.07-7.63-.29-10.87h5.54l.22,6.84h.29c1.58-4.68,5.4-7.63,9.65-7.63.72,0,1.22.07,1.8.22v5.98c-.65-.14-1.3-.22-2.16-.22-4.46,0-7.63,3.38-8.5,8.14-.14.86-.29,1.87-.29,2.95v18.58h-6.26v-23.98Z"/>
    <path class="cls-6" d="M690.48,72.14v10.01h9.07v4.82h-9.07v18.79c0,4.32,1.22,6.77,4.75,6.77,1.66,0,2.88-.22,3.67-.43l.29,4.75c-1.22.5-3.17.86-5.62.86-2.95,0-5.33-.94-6.84-2.66-1.8-1.87-2.45-4.97-2.45-9.07v-19.01h-5.4v-4.82h5.4v-8.35l6.19-1.66Z"/>
    <path class="cls-6" d="M713.73,72.36c.07,2.16-1.51,3.89-4.03,3.89-2.23,0-3.82-1.73-3.82-3.89s1.66-3.96,3.96-3.96,3.89,1.73,3.89,3.96ZM706.68,117v-34.85h6.34v34.85h-6.34Z"/>
    <path class="cls-6" d="M722.66,110.52c1.87,1.22,5.18,2.52,8.35,2.52,4.61,0,6.77-2.3,6.77-5.18,0-3.02-1.8-4.68-6.48-6.41-6.26-2.23-9.22-5.69-9.22-9.86,0-5.62,4.54-10.23,12.03-10.23,3.53,0,6.62,1.01,8.57,2.16l-1.58,4.61c-1.37-.86-3.89-2.02-7.13-2.02-3.74,0-5.83,2.16-5.83,4.75,0,2.88,2.09,4.18,6.62,5.9,6.05,2.3,9.14,5.33,9.14,10.51,0,6.12-4.75,10.44-13.03,10.44-3.82,0-7.34-.94-9.79-2.38l1.58-4.82Z"/>
    <path class="cls-6" d="M755.56,100.73c.14,8.57,5.62,12.1,11.95,12.1,4.54,0,7.27-.79,9.65-1.8l1.08,4.54c-2.23,1.01-6.05,2.16-11.59,2.16-10.73,0-17.14-7.06-17.14-17.57s6.19-18.79,16.35-18.79c11.38,0,14.4,10.01,14.4,16.42,0,1.3-.14,2.3-.22,2.95h-24.48ZM774.14,96.19c.07-4.03-1.66-10.3-8.79-10.3-6.41,0-9.22,5.9-9.72,10.3h18.51Z"/>
    <path class="cls-6" d="M788.11,91.58c0-3.6-.07-6.55-.29-9.43h5.54l.29,5.62h.22c1.94-3.31,5.18-6.41,10.95-6.41,4.75,0,8.35,2.88,9.87,6.98h.14c1.08-1.94,2.45-3.46,3.89-4.54,2.09-1.58,4.39-2.45,7.7-2.45,4.61,0,11.45,3.02,11.45,15.12v20.52h-6.19v-19.73c0-6.7-2.45-10.73-7.56-10.73-3.6,0-6.41,2.66-7.49,5.76-.29.86-.5,2.02-.5,3.17v21.53h-6.19v-20.88c0-5.54-2.45-9.58-7.27-9.58-3.96,0-6.84,3.17-7.85,6.34-.36.94-.5,2.02-.5,3.1v21.03h-6.19v-25.42Z"/>
    <path class="cls-6" d="M851.68,100.73c.14,8.57,5.62,12.1,11.95,12.1,4.54,0,7.27-.79,9.65-1.8l1.08,4.54c-2.23,1.01-6.05,2.16-11.59,2.16-10.73,0-17.14-7.06-17.14-17.57s6.19-18.79,16.35-18.79c11.38,0,14.4,10.01,14.4,16.42,0,1.3-.14,2.3-.22,2.95h-24.48ZM870.26,96.19c.07-4.03-1.66-10.3-8.79-10.3-6.41,0-9.22,5.9-9.72,10.3h18.51Z"/>
    <path class="cls-6" d="M884.23,91.58c0-3.6-.07-6.55-.29-9.43h5.62l.36,5.76h.14c1.73-3.31,5.76-6.55,11.52-6.55,4.82,0,12.31,2.88,12.31,14.83v20.81h-6.34v-20.09c0-5.62-2.09-10.3-8.07-10.3-4.18,0-7.42,2.95-8.5,6.48-.29.79-.43,1.87-.43,2.95v20.95h-6.34v-25.42Z"/>
    <path class="cls-6" d="M931.53,72.14v10.01h9.07v4.82h-9.07v18.79c0,4.32,1.22,6.77,4.75,6.77,1.66,0,2.88-.22,3.67-.43l.29,4.75c-1.22.5-3.17.86-5.62.86-2.95,0-5.33-.94-6.84-2.66-1.8-1.87-2.45-4.97-2.45-9.07v-19.01h-5.4v-4.82h5.4v-8.35l6.19-1.66Z"/>
  </g>
  <line class="cls-11" x1="174" y1="416" x2="310" y2="254"/>
  <polygon class="cls-12" points="321.9 241.1 312 268 296.2 253.8 321.9 241.1"/>
  <polygon class="cls-12" points="321.9 241.1 312 268 296.2 253.8 321.9 241.1"/>
  <line class="cls-11" x1="1310.9" y1="422" x2="1174.9" y2="260"/>
  <polygon class="cls-12" points="1163 247.1 1172.9 274 1188.7 259.8 1163 247.1"/>
  <polygon class="cls-12" points="1163 247.1 1172.9 274 1188.7 259.8 1163 247.1"/>
  <line class="cls-11" x1="904" y1="413" x2="904.36" y2="273.56"/>
  <polygon class="cls-12" points="903.54 256.02 893.82 282.99 915.05 282.28 903.54 256.02"/>
  <polygon class="cls-12" points="903.54 256.02 893.82 282.99 915.05 282.28 903.54 256.02"/>
  <line class="cls-11" x1="550" y1="418" x2="550.36" y2="278.56"/>
  <polygon class="cls-12" points="550.14 251.37 539.52 278 560.76 278 550.14 251.37"/>
</svg>